<?xml version="1.0" standalone="no"?>
<!DOCTYPE svg PUBLIC "-//W3C//DTD SVG 20010904//EN"
 "http://www.w3.org/TR/2001/REC-SVG-20010904/DTD/svg10.dtd">
<svg version="1.0" xmlns="http://www.w3.org/2000/svg"
 width="700.000000pt" height="700.000000pt" viewBox="0 0 700.000000 700.000000"
 preserveAspectRatio="xMidYMid meet">
<g transform="translate(0.000000,700.000000) scale(0.100000,-0.100000)"
fill="#000000" stroke="none">
<path d="M1648 5563 c33 -38 117 -131 186 -208 l126 -140 -2 -1735 c-3 -1634
-4 -1738 -21 -1795 -29 -96 -67 -173 -133 -266 -79 -111 -72 -122 44 -75 365
147 623 428 723 786 l24 85 5 1497 5 1498 165 187 c91 103 173 197 183 210
l18 23 -691 0 -692 0 60 -67z"/>
<path d="M2864 4832 c3 -4 86 -100 185 -213 l181 -204 0 -1292 0 -1293 -184
-207 -183 -208 1175 -3 c646 -1 1176 -1 1177 0 5 7 55 1061 51 1066 -3 2 -11
2 -18 -1 -7 -2 -163 -217 -347 -476 l-334 -471 -349 0 -348 0 0 1443 0 1444
166 189 c91 104 175 199 187 212 l20 22 -692 0 c-381 0 -690 -4 -687 -8z"/>
</g>
</svg>
