<?xml version="1.0" encoding="utf-8"?>
<!-- Generator: Adobe Illustrator 24.0.2, SVG Export Plug-In . SVG Version: 6.00 Build 0)  -->
<svg version="1.1" id="Layer_1" xmlns="http://www.w3.org/2000/svg" xmlns:xlink="http://www.w3.org/1999/xlink" x="0px" y="0px"
	 viewBox="0 0 90 90" style="enable-background:new 0 0 90 90;" xml:space="preserve">
<style type="text/css">
	.st0{fill:#31302A;}
	.st1{font-family:'Baskerville';}
	.st2{font-size:8.1046px;}
	.st3{font-size:16.2091px;}
</style>
<g>
	<text transform="matrix(1 0 0 1 22.4155 44.465)" class="st0 st1 st2">KALORAMA</text>
	<text transform="matrix(1 0 0 1 21.4282 57.983)" class="st0 st1 st3">RESORT</text>
</g>
<g id="XMLID_495_">
	<g>
		<path id="XMLID_41_" class="st0" d="M6.4,45c0.5,0.6,0.8,1.1,1.1,1.6c0,0,0,0.1,0.1,0.2c0.3-0.4,0.7-0.7,1.1-1
			c-0.2-0.4-0.5-0.8-0.7-1.1c1.2-0.8,2.6-1.9,4.3-3.3c0.6-0.5,1.1-0.9,1.5-1.1c0.4-0.2,0.8-0.4,1.4-0.5l0.1-0.3
			c-0.8,0.1-1.4,0.1-2,0.1c-0.6,0-1.3,0-2.2-0.1l-0.1,0.6c0.6,0,1,0,1.2,0.1c0.1,0,0.2,0.1,0.2,0.1c0,0,0,0.1-0.1,0.2
			c-0.2,0.2-0.8,0.8-2,1.7c-0.6,0.5-1.3,1-1.9,1.5c-0.7,0.5-1.3,0.8-1.8,1l0.8-3.1c0.1-0.4,0.4-1.1,0.7-2.1H7.4
			c-2.3,0-4,0.4-4.9,1.1C1.5,41.4,1,42.3,1,43.2c0,0.3,0.1,0.6,0.2,0.8c0.2,0.2,0.4,0.3,0.6,0.3c0.2,0,0.3-0.1,0.5-0.2
			c0.1-0.1,0.2-0.3,0.2-0.5c0-0.2-0.1-0.3-0.2-0.6C2.1,42.8,2,42.6,2,42.4c0-0.5,0.3-1,0.9-1.4c0.8-0.5,1.9-0.8,3.2-0.9l-1.3,4.8
			c-0.6,2.2-1.1,3.9-1.4,5c-0.2,0.5-0.4,0.9-0.6,1.1c-0.3,0.2-0.7,0.4-1.4,0.5L1.4,52c1.2-0.2,2.1-0.3,2.7-0.3c0.3,0,0.6,0,1.1,0.1
			c0.4,0,0.6,0.1,0.9,0.1C6,51.6,6,51.5,6,51.3c-0.3,0-0.7-0.1-1.1-0.3c0.1-0.4,0.2-1,0.4-1.8L6.4,45z"/>
		<path id="XMLID_40_" class="st0" d="M15.3,54.3c0.1-0.1,0.3-0.2,0.4-0.3c0.2-0.3,0.4-0.6,0.4-0.9c0-0.2-0.1-0.3-0.2-0.4
			c-0.1-0.1-0.3-0.2-0.4-0.2c-0.1,0-0.2,0-0.3,0.1c0,0,0,0-0.1,0c-0.1,0.1-0.2,0.2-0.3,0.5c0,0,0,0.1-0.1,0.2
			c-0.2,0.6-0.5,0.9-1.1,0.9c0,0-0.1,0-0.1,0c-0.2,0-0.3,0-0.5-0.1c-0.3-0.1-0.7-0.3-1-0.6c-0.1-0.1-0.1-0.1-0.2-0.2
			c-0.1-0.1-0.1-0.1-0.2-0.2c-0.4-0.5-0.7-1.2-1.1-2.1c-0.1-0.3-0.2-0.6-0.3-0.9c0-0.1-0.1-0.2-0.1-0.3c-0.3-1-0.6-1.8-0.8-2.4
			c-0.4,0.3-0.7,0.6-0.9,1c-0.1,0.1-0.1,0.2-0.1,0.2c0.1,0.3,0.2,0.5,0.3,0.9c0.4,1.1,0.8,2.1,1.1,2.7c0.1,0.2,0.2,0.4,0.3,0.5
			c0,0,0,0,0,0.1c0.4,0.6,0.8,1,1.3,1.3c0.1,0.1,0.2,0.1,0.3,0.2c0.1,0,0.1,0.1,0.2,0.1c0.5,0.3,1,0.4,1.6,0.4c0,0,0.1,0,0.1,0
			c0.2,0,0.3,0,0.5,0C14.4,54.8,14.9,54.6,15.3,54.3C15.2,54.3,15.3,54.3,15.3,54.3z"/>
		<path id="XMLID_39_" class="st0" d="M20.8,56.2c-0.1-0.1-0.3-0.2-0.4-0.2c-0.2,0-0.3,0.1-0.4,0.2c-0.1,0.1-0.2,0.3-0.3,0.7
			c-0.2,0.6-0.6,0.9-1.3,0.9c-0.6,0-1.2-0.3-1.8-0.9c-0.3-0.4-0.8-1.2-1.2-2.1c-0.4,0.3-0.8,0.4-1.3,0.5c0.2,0.4,0.5,0.8,0.7,1.1
			c0.6,0.7,1.2,1.3,1.8,1.6c0.6,0.3,1.2,0.5,1.9,0.5c0.7,0,1.3-0.2,1.8-0.6c0.5-0.4,0.7-0.8,0.7-1.2C21,56.5,20.9,56.3,20.8,56.2z"
			/>
		<path id="XMLID_38_" class="st0" d="M10.7,56.7l0.5-2c-0.5-0.3-0.9-0.7-1.3-1.2l-0.3,1.1c-0.2,0.7-0.4,1.3-0.8,1.5
			c-0.2,0.2-0.7,0.4-1.5,0.6l-0.2,0.6c0.7-0.2,1.3-0.2,1.9-0.2c0.3,0,0.7,0,1.1,0.1c0.5,0,0.9,0.1,1.2,0.1c0.3,0,0.6,0,1.1-0.1
			l0.1-0.5c-0.4,0.1-0.8,0.2-1.1,0.2C11.3,56.7,11,56.7,10.7,56.7z"/>
		<path id="XMLID_37_" class="st0" d="M8,53.6c0.2,0,0.3-0.1,0.4-0.2c0.1-0.1,0.2-0.2,0.2-0.4c0-0.1,0-0.2-0.1-0.3
			c-0.1-0.1-0.2-0.3-0.5-0.5c-0.5-0.4-0.7-0.9-0.8-1.5c0,0,0,0,0-0.1c0,0,0-0.1,0-0.1c0-0.7,0.2-1.3,0.5-1.9
			c0.1-0.2,0.2-0.3,0.3-0.5c0,0,0-0.1,0.1-0.1c0.3-0.4,0.7-0.8,1.1-1.1c0.1-0.1,0.3-0.2,0.4-0.3c0.2-0.1,0.5-0.3,0.7-0.4
			c1-0.5,2.1-0.8,3.1-0.8c0.8,0,1.5,0.2,2,0.6c0.5,0.4,0.7,0.9,0.7,1.6c0,0.8-0.3,1.5-0.9,2.1c-0.6,0.6-1.3,0.9-2.2,0.9
			c-0.2,0-0.5,0-0.8-0.1l0.8-3c0.1-0.5,0.2-0.9,0.3-1.1c-1,0.2-1.8,0.4-2.5,0.4l-0.1,0.5c0.3,0,0.4,0,0.5,0.1
			c0.1,0.1,0.1,0.2,0.1,0.3c0,0.1-0.1,0.6-0.3,1.3l-0.3,1.2c0.3,1,0.7,1.8,1,2.3l0.3-1.2c0.1,0,0.2,0,0.3,0l0.3,0
			c0.1,0.2,0.2,0.7,0.5,1.5c0.1,0.3,0.2,0.7,0.4,1c0,0,0.1,0,0.1,0c0.3,0,0.5-0.1,0.7-0.6c0.1-0.3,0.2-0.5,0.3-0.6c0,0,0,0,0,0
			c-0.1-0.2-0.3-0.6-0.6-1.3c1.3-0.2,2.3-0.7,3-1.4c0.7-0.7,1.1-1.5,1.1-2.3c0-0.9-0.4-1.6-1.2-2c-0.8-0.5-1.8-0.7-3-0.7
			c-1.3,0-2.6,0.3-3.7,0.9c-0.2,0.1-0.5,0.2-0.7,0.4c-0.2,0.1-0.3,0.2-0.4,0.3c-0.4,0.3-0.8,0.7-1.1,1c-0.1,0.2-0.3,0.3-0.4,0.5
			c0,0,0,0,0,0.1c-0.6,0.9-0.9,1.8-0.9,2.8c0,0,0,0.1,0,0.1c0,0.1,0,0.3,0,0.4c0,0,0,0.1,0,0.1c0,0.3,0.1,0.6,0.2,0.9
			c0.1,0.2,0.2,0.4,0.3,0.6C7.3,53.4,7.6,53.6,8,53.6z"/>
	</g>
</g>
</svg>
